<svg xmlns="http://www.w3.org/2000/svg" width="697" height="358" viewBox="0 0 697 358" version="1.1"><path d="M 566 16.640 C 544.586 20.924, 529.158 32.733, 521.111 51 C 518.452 57.036, 517.893 59.899, 517.290 70.566 C 516.550 83.648, 518.754 93.360, 524.697 103.209 C 530.636 113.052, 536.498 118.779, 546.409 124.422 C 557.814 130.914, 568.199 132.746, 583.420 130.948 C 592.030 129.932, 597.002 127.932, 607 121.465 C 614.977 116.306, 618.378 112.668, 624.262 103 C 630.794 92.269, 631.989 87.329, 631.723 72.161 C 631.511 60.134, 631.335 59.151, 628.196 52.522 C 619.551 34.265, 609.444 24.832, 592.589 19.290 C 585.620 16.999, 571.329 15.574, 566 16.640 M 39 77.369 L 39 90.738 42.750 91.358 C 44.813 91.699, 48.836 91.983, 51.691 91.989 C 54.546 91.995, 57.063 92.338, 57.285 92.750 C 57.506 93.162, 57.132 103.850, 56.454 116.500 C 55.775 129.150, 54.940 146.250, 54.598 154.500 C 53.943 170.305, 51.429 212.293, 50.083 229.928 C 49.350 239.538, 49.076 240.538, 46.588 242.678 C 44.701 244.301, 42.627 245.004, 39.694 245.014 C 30.745 245.043, 31 244.643, 31 258.617 L 31 271 67.750 270.996 L 104.500 270.992 104.829 263.334 C 105.010 259.122, 104.856 253.064, 104.485 249.873 L 103.812 244.070 94.156 243.785 C 84.559 243.502, 84.501 243.485, 84.630 241 C 84.702 239.625, 85.498 225.450, 86.401 209.500 C 88.138 178.779, 89.630 148.750, 89.951 138.037 C 90.288 126.784, 90.912 127.555, 98.485 148.594 C 100.285 153.596, 102.461 159.221, 103.321 161.094 C 106.235 167.448, 110 177.339, 110 178.643 C 110 179.357, 111.055 182.317, 112.344 185.220 C 113.633 188.124, 115.284 192.075, 116.012 194 C 116.740 195.925, 117.649 197.950, 118.033 198.500 C 118.416 199.050, 119.728 202.650, 120.949 206.500 C 122.169 210.350, 123.790 214.850, 124.551 216.500 C 127.176 222.191, 131.993 234.503, 131.997 235.529 C 131.998 236.095, 133.323 239.695, 134.940 243.529 L 137.880 250.500 152.808 250.775 L 167.736 251.051 169.026 247.775 C 169.735 245.974, 171.094 242.700, 172.045 240.500 C 172.996 238.300, 175.443 232, 177.482 226.500 C 179.522 221, 182.769 212.675, 184.697 208 C 186.626 203.325, 189.007 197.025, 189.988 194 C 190.969 190.975, 193.588 184, 195.808 178.500 C 202.684 161.466, 206.006 152.918, 210.288 141.250 C 212.559 135.063, 214.727 130, 215.107 130 C 215.486 130, 216.075 133.037, 216.415 136.750 C 217.244 145.797, 219.802 193.690, 220.488 213 C 220.791 221.525, 221.269 230.750, 221.551 233.500 C 222.453 242.313, 220.316 244.198, 207.932 245.509 L 202.365 246.098 202.131 258.549 L 201.897 271 239.949 271 L 278 271 278 257.500 L 278 244 270.250 243.986 C 257.254 243.963, 258.568 246.452, 257.144 219.183 C 256.464 206.157, 255.707 190.325, 255.461 184 C 254.715 164.761, 252.988 131.305, 251.976 116.500 C 250.638 96.908, 250.611 97.235, 253.825 94.021 C 256.133 91.714, 257.871 91.066, 263.325 90.482 L 270 89.767 270 76.884 L 270 64 240.250 64.015 C 223.887 64.024, 210.016 64.361, 209.424 64.765 C 208.324 65.516, 202.527 79.767, 192.447 106.500 C 189.336 114.750, 185.196 125.550, 183.247 130.500 C 181.298 135.450, 178.284 143.550, 176.549 148.500 C 174.814 153.450, 171.531 162.225, 169.255 168 C 166.978 173.775, 162.952 184.231, 160.308 191.237 C 157.664 198.242, 155.271 203.979, 154.992 203.987 C 154.456 204.001, 153.027 200.438, 147.379 185 C 145.467 179.775, 141.408 168.975, 138.360 161 C 129.440 137.668, 126.971 131.117, 122.909 120 C 117.885 106.251, 105.781 74.584, 103.620 69.535 C 102.686 67.354, 101.377 65.224, 100.711 64.800 C 100.045 64.377, 85.888 64.024, 69.250 64.015 L 39 64 39 77.369 M 292.682 115.651 C 292.307 116.026, 292 121.650, 292 128.148 C 292 141.501, 291.366 140.595, 301.210 141.286 C 303.995 141.482, 306.753 142.371, 307.960 143.463 C 309.945 145.260, 310 146.330, 310 183.197 C 310 226.041, 310.627 231.649, 316.722 243.275 C 320.584 250.641, 328.912 259.101, 334.671 261.507 C 336.557 262.295, 341.434 263.628, 345.508 264.470 C 367.236 268.958, 389.169 262.907, 402.958 248.619 C 405.410 246.079, 407.799 244, 408.266 244 C 409.615 244, 408.150 279.185, 406.583 284.389 C 403.248 295.471, 395.258 304.164, 384.817 308.068 C 379.659 309.997, 376.805 310.366, 367.484 310.307 C 354.532 310.225, 346.600 308.332, 342.954 304.451 C 340.770 302.128, 340.445 300.719, 340 291.670 C 339.715 285.865, 339.071 281.510, 338.500 281.524 C 333.081 281.655, 313.105 283.220, 311.750 283.619 C 310.154 284.089, 310 286.019, 310 305.580 L 310 327.025 315.680 329.537 C 329.345 335.581, 335.194 336.418, 364 336.456 L 390.500 336.490 398.500 333.679 C 410.293 329.535, 417.983 324.842, 424.633 317.733 C 429.426 312.610, 431.268 309.598, 434.287 301.951 C 441.075 284.753, 441 285.945, 441 195.912 L 441 115 413.500 115 L 386 115 386 127.868 L 386 140.737 393.602 141.225 C 397.930 141.503, 401.524 142.229, 401.945 142.911 C 403.108 144.793, 404.046 182.558, 403.347 199.335 C 402.767 213.252, 402.485 214.960, 399.926 220.087 C 394.498 230.957, 384.475 236.974, 371.770 236.990 C 362.107 237.002, 357.022 235.091, 353.640 230.175 C 348.443 222.621, 348.552 223.817, 348.010 168 L 347.500 115.500 320.432 115.234 C 305.545 115.088, 293.058 115.276, 292.682 115.651 M 558 139.574 C 533.446 143.086, 510.805 157.105, 493.016 179.813 C 486.924 187.589, 480.229 201.553, 477.104 213 C 474.904 221.057, 474.483 226.950, 474.565 248.500 C 474.639 267.680, 474.788 268.211, 482.471 276.757 C 485.793 280.452, 488.636 282.468, 492.628 283.962 C 498.086 286.004, 499.361 286.032, 575.835 285.768 L 653.500 285.500 659 282.759 C 662.513 281.009, 665.584 278.506, 667.500 275.831 C 674.070 266.661, 673.912 267.449, 673.958 243.480 C 673.994 224.422, 673.730 220.485, 671.993 214.218 C 669.378 204.781, 661.782 187.579, 658.234 183.058 C 656.698 181.101, 654.730 178.375, 653.861 177 C 652.090 174.197, 640.378 162, 639.457 162 C 639.132 162, 636.308 159.903, 633.183 157.340 C 628.321 153.354, 620.499 149.149, 607.500 143.534 C 603.371 141.750, 596.064 140.212, 586.026 139.012 C 575.439 137.747, 570.008 137.856, 558 139.574" stroke="none" fill="#3c74cb" fill-rule="evenodd"/></svg>